<?xml version="1.0" standalone="no"?>
<!DOCTYPE svg PUBLIC "-//W3C//DTD SVG 20010904//EN"
 "http://www.w3.org/TR/2001/REC-SVG-20010904/DTD/svg10.dtd">
<svg version="1.0" xmlns="http://www.w3.org/2000/svg"
 width="500.000000pt" height="500.000000pt" viewBox="0 0 500.000000 500.000000"
 preserveAspectRatio="xMidYMid meet">

<g transform="translate(0.000000,500.000000) scale(0.100000,-0.100000)"
fill="#000000" stroke="none">
<path d="M3579 4019 c-101 -166 -106 -172 -159 -199 -247 -124 -2073 -961
-2080 -954 -19 19 -203 440 -202 462 1 17 -4 22 -21 22 -13 0 -27 -4 -33 -9
-21 -20 -315 -140 -329 -135 -15 6 -225 -142 -225 -158 0 -5 65 -139 145 -298
80 -159 145 -296 145 -303 0 -7 354 -334 787 -727 432 -393 808 -736 834 -761
67 -65 168 -119 223 -119 l43 0 573 1318 c574 1316 574 1317 697 1522 68 113
123 210 123 216 0 5 -21 38 -46 72 -42 56 -57 68 -193 142 -82 44 -155 80
-163 80 -9 0 -59 -73 -119 -171z m262 60 c71 -38 129 -73 129 -76 0 -11 -222
-403 -228 -403 -3 0 -16 9 -28 21 l-22 20 94 167 c52 92 94 172 94 178 0 12
-140 104 -158 104 -5 0 -51 -70 -102 -155 -83 -139 -94 -153 -110 -143 -10 7
-17 14 -16 18 20 38 209 340 213 340 3 0 63 -32 134 -71z m-6 -99 c2 -3 -36
-76 -84 -161 l-87 -156 -55 46 -55 46 88 147 89 147 50 -31 c27 -18 52 -34 54
-38z m199 -44 c14 -19 26 -38 26 -41 0 -6 -217 -373 -228 -385 -2 -3 -11 5
-19 18 -9 12 -22 22 -29 22 -8 0 -14 3 -14 7 0 12 224 413 231 413 4 0 18 -15
33 -34z m-789 -1772 c-312 -714 -568 -1301 -571 -1303 -9 -9 -165 80 -193 110
-14 15 -381 350 -816 744 -434 394 -794 722 -799 729 -7 10 4 37 35 90 l45 76
705 -675 c390 -374 712 -675 722 -675 10 0 74 -43 144 -95 69 -52 132 -95 138
-95 11 0 176 367 983 2188 l125 282 24 -39 23 -39 -565 -1298z m-46 1075 l-51
-114 -781 -321 -782 -320 -52 45 c-29 25 -53 48 -53 51 0 6 1763 780 1767 776
2 -2 -20 -54 -48 -117z m-1996 -165 c54 -120 99 -223 100 -228 1 -5 -4 -11
-11 -13 -8 -3 -45 63 -104 186 -50 105 -96 191 -102 191 -26 0 -236 -83 -236
-94 0 -11 142 -362 160 -397 7 -12 3 -19 -14 -27 -22 -10 -25 -4 -120 230 -53
132 -96 242 -94 243 10 10 305 134 312 132 5 -2 54 -102 109 -223z m-43 -78
c46 -96 83 -178 82 -182 0 -8 -192 -98 -196 -92 -7 9 -156 381 -154 383 6 5
163 63 174 64 6 1 48 -77 94 -173z m-317 -86 c54 -133 95 -246 90 -249 -4 -3
-21 -31 -36 -61 -32 -62 -55 -96 -61 -89 -2 2 -63 122 -135 266 l-131 262 78
60 c42 33 81 59 87 57 5 -1 54 -112 108 -246z m2223 28 c-34 -79 -176 -403
-316 -721 -139 -318 -257 -576 -261 -575 -5 2 -204 185 -443 408 -349 325
-432 407 -418 413 15 7 1494 615 1499 616 1 1 -26 -63 -61 -141z m-577 -1372
c11 -14 6 -15 -27 -7 -4 1 8 21 12 21 2 0 9 -6 15 -14z m-12 -58 c-3 -8 -6 -5
-6 6 -1 11 2 17 5 13 3 -3 4 -12 1 -19z m-44 -103 c-3 -9 -8 -14 -10 -11 -3 3
-2 9 2 15 9 16 15 13 8 -4z"/>
</g>
</svg>
